<svg width="42" height="42" viewBox="0 0 42 42" fill="none" xmlns="http://www.w3.org/2000/svg">
<rect width="42" height="42" rx="2" fill="#303030"/>
<path d="M33.2383 8H30.1406C29.7196 8 29.3789 8.34069 29.3789 8.76172V9.52344H23.1448C22.8293 8.63873 21.9918 8 21 8C20.0082 8 19.1707 8.63873 18.8552 9.52344H12.6211V8.76172C12.6211 8.34069 12.2804 8 11.8594 8H8.76172C8.34069 8 8 8.34069 8 8.76172V11.8086C8 12.2296 8.34069 12.5703 8.76172 12.5703H11.8594C12.2804 12.5703 12.6211 12.2296 12.6211 11.8086V11.0367H15.7494C13.1059 12.6882 11.3628 15.5887 11.1545 18.8375C10.2405 19.1366 9.57422 19.9874 9.57422 21C9.57422 22.2601 10.5993 23.2852 11.8594 23.2852C13.1195 23.2852 14.1445 22.2601 14.1445 21C14.1445 20.028 13.5321 19.2017 12.6749 18.8719C12.9348 15.2499 15.4621 12.1972 18.9775 11.3262C19.3577 12.0613 20.1168 12.5703 21 12.5703C21.8832 12.5703 22.6423 12.0613 23.0225 11.3262C26.5379 12.1971 29.0652 15.2499 29.3251 18.8719C28.4679 19.2017 27.8555 20.028 27.8555 21C27.8555 22.2601 28.8805 23.2852 30.1406 23.2852C31.4007 23.2852 32.4258 22.2601 32.4258 21C32.4258 19.9874 31.7595 19.1366 30.8455 18.8375C30.6372 15.5887 28.8941 12.6983 26.2506 11.0469H29.3789V11.8086C29.3789 12.2296 29.7196 12.5703 30.1406 12.5703H33.2383C33.6593 12.5703 34 12.2296 34 11.8086V8.76172C34 8.34069 33.6593 8 33.2383 8Z" fill="white"/>
<path d="M26.182 33.0552C25.7835 31.836 24.6357 30.9023 23.2849 30.9023H18.7146C17.3638 30.9023 16.2159 31.836 15.8175 33.0552C15.6639 33.5253 16.0638 34 16.5584 34H25.4411C25.9356 34 26.3356 33.5253 26.182 33.0552Z" fill="white"/>
<path d="M27.7275 23.6245L21.7617 14.6758V21.9022C22.6464 22.2177 23.2852 23.0552 23.2852 24.047C23.2852 25.3071 22.2601 26.3322 21 26.3322C19.7399 26.3322 18.7149 25.3071 18.7149 24.047C18.7149 23.0552 19.3536 22.2177 20.2383 21.9022V14.6758L14.2725 23.6245C14.0709 23.9265 14.1111 24.3289 14.3677 24.5856C15.7661 25.984 16.6599 27.7854 17.0049 29.7178C17.534 29.5031 18.1095 29.379 18.7149 29.379H23.2852C23.8905 29.379 24.466 29.5031 24.9951 29.7177C25.3401 27.7852 26.2339 25.984 27.6323 24.5856C27.8889 24.3289 27.9291 23.9265 27.7275 23.6245Z" fill="white"/>
<path d="M21 23.2852C20.5797 23.2852 20.2383 23.6266 20.2383 24.0469C20.2383 24.4671 20.5797 24.8086 21 24.8086C21.4203 24.8086 21.7617 24.4671 21.7617 24.0469C21.7617 23.6266 21.4203 23.2852 21 23.2852Z" fill="white"/>
</svg>
