<svg width="17" height="11" viewBox="0 0 17 11" fill="none" xmlns="http://www.w3.org/2000/svg">
<path fill-rule="evenodd" clip-rule="evenodd" d="M16.9989 5.20005C16.9989 5.35328 16.938 5.50023 16.8297 5.60857C16.7213 5.71692 16.5744 5.77779 16.4212 5.77779H2.79471L6.43097 9.41289C6.48468 9.46661 6.52729 9.53038 6.55636 9.60056C6.58543 9.67074 6.6004 9.74596 6.6004 9.82193C6.6004 9.89789 6.58543 9.97311 6.55636 10.0433C6.52729 10.1135 6.48468 10.1772 6.43097 10.231C6.37725 10.2847 6.31348 10.3273 6.2433 10.3564C6.17312 10.3854 6.0979 10.4004 6.02193 10.4004C5.94597 10.4004 5.87075 10.3854 5.80056 10.3564C5.73038 10.3273 5.66661 10.2847 5.6129 10.231L0.99102 5.60909C0.937218 5.55542 0.894532 5.49167 0.865406 5.42148C0.836281 5.35129 0.821289 5.27604 0.821289 5.20005C0.821289 5.12406 0.836281 5.04882 0.865406 4.97863C0.894532 4.90844 0.937218 4.84468 0.99102 4.79102L5.6129 0.169142C5.66661 0.115427 5.73038 0.0728178 5.80056 0.0437469C5.87075 0.0146761 5.94597 -0.000285149 6.02193 -0.000285149C6.0979 -0.000285149 6.17312 0.0146761 6.2433 0.0437469C6.31348 0.0728178 6.37725 0.115427 6.43097 0.169142C6.48468 0.222857 6.52729 0.286627 6.55636 0.35681C6.58543 0.426991 6.6004 0.502213 6.6004 0.578178C6.6004 0.654143 6.58543 0.729364 6.55636 0.799547C6.52729 0.86973 6.48468 0.933498 6.43097 0.987214L2.79471 4.62232H16.4212C16.5744 4.62232 16.7213 4.68319 16.8297 4.79153C16.938 4.89988 16.9989 5.04683 16.9989 5.20005Z" fill="#656565"/>
</svg>
