<svg width="17" height="11" viewBox="0 0 17 11" fill="none" xmlns="http://www.w3.org/2000/svg">
<path fill-rule="evenodd" clip-rule="evenodd" d="M0.822401 5.20034C0.822401 5.04711 0.883268 4.90017 0.991615 4.79182C1.09996 4.68347 1.24691 4.6226 1.40014 4.6226H15.0266L11.3903 0.9875C11.3366 0.933785 11.294 0.870015 11.2649 0.799833C11.2359 0.72965 11.2209 0.654429 11.2209 0.578464C11.2209 0.502499 11.2359 0.427278 11.2649 0.357095C11.294 0.286913 11.3366 0.223143 11.3903 0.169428C11.444 0.115713 11.5078 0.0731035 11.578 0.044033C11.6482 0.0149625 11.7234 0 11.7994 0C11.8753 0 11.9505 0.0149625 12.0207 0.044033C12.0909 0.0731035 12.1547 0.115713 12.2084 0.169428L16.8303 4.7913C16.8841 4.84497 16.9268 4.90872 16.9559 4.97891C16.985 5.0491 17 5.12435 17 5.20034C17 5.27633 16.985 5.35158 16.9559 5.42176C16.9268 5.49195 16.8841 5.55571 16.8303 5.60937L12.2084 10.2312C12.1547 10.285 12.0909 10.3276 12.0207 10.3566C11.9505 10.3857 11.8753 10.4007 11.7994 10.4007C11.7234 10.4007 11.6482 10.3857 11.578 10.3566C11.5078 10.3276 11.444 10.285 11.3903 10.2312C11.3366 10.1775 11.294 10.1138 11.2649 10.0436C11.2359 9.9734 11.2209 9.89818 11.2209 9.82221C11.2209 9.74625 11.2359 9.67103 11.2649 9.60084C11.294 9.53066 11.3366 9.46689 11.3903 9.41318L15.0266 5.77807H1.40014C1.24691 5.77807 1.09996 5.7172 0.991615 5.60886C0.883268 5.50051 0.822401 5.35356 0.822401 5.20034Z" fill="#ffffff"/>
</svg>
