<svg width="42" height="42" viewBox="0 0 42 42" fill="none" xmlns="http://www.w3.org/2000/svg">
<rect width="42" height="42" rx="2" fill="#303030"/>
<g clip-path="url(#clip0)">
<path d="M28.8545 8H13.1462C11.5027 8 10.167 9.33575 10.167 10.9792V31.0208C10.167 32.6643 11.5027 34 13.1462 34H28.8545C30.4979 34 31.8337 32.6643 31.8337 31.0208V10.9792C31.8337 9.33575 30.4979 8 28.8545 8ZM18.5953 28.28C18.9127 28.5974 18.9127 29.112 18.5953 29.4294C18.4372 29.5876 18.2292 29.6667 18.0212 29.6667C17.8132 29.6667 17.6052 29.5876 17.447 29.4283L16.667 28.6494L15.887 29.4294C15.7288 29.5876 15.5208 29.6667 15.3128 29.6667C15.1048 29.6667 14.8968 29.5876 14.7387 29.4283C14.4212 29.1109 14.4212 28.5963 14.7387 28.2789L15.5176 27.5L14.7376 26.72C14.4202 26.4026 14.4202 25.888 14.7376 25.5706C15.055 25.2532 15.5696 25.2532 15.887 25.5706L16.667 26.3506L17.447 25.5706C17.7644 25.2532 18.279 25.2532 18.5964 25.5706C18.9138 25.888 18.9138 26.4026 18.5964 26.72L17.8164 27.5L18.5953 28.28ZM18.0212 21.8125H17.4795V22.3542C17.4795 22.8027 17.1155 23.1667 16.667 23.1667C16.2185 23.1667 15.8545 22.8027 15.8545 22.3542V21.8125H15.3128C14.8643 21.8125 14.5003 21.4485 14.5003 21C14.5003 20.5515 14.8643 20.1875 15.3128 20.1875H15.8545V19.6458C15.8545 19.1973 16.2185 18.8333 16.667 18.8333C17.1155 18.8333 17.4795 19.1973 17.4795 19.6458V20.1875H18.0212C18.4697 20.1875 18.8337 20.5515 18.8337 21C18.8337 21.4485 18.4697 21.8125 18.0212 21.8125ZM26.6878 29.6667H23.9795C23.531 29.6667 23.167 29.3027 23.167 28.8542C23.167 28.4057 23.531 28.0417 23.9795 28.0417H26.6878C27.1363 28.0417 27.5003 28.4057 27.5003 28.8542C27.5003 29.3027 27.1363 29.6667 26.6878 29.6667ZM26.6878 26.9583H23.9795C23.531 26.9583 23.167 26.5943 23.167 26.1458C23.167 25.6973 23.531 25.3333 23.9795 25.3333H26.6878C27.1363 25.3333 27.5003 25.6973 27.5003 26.1458C27.5003 26.5943 27.1363 26.9583 26.6878 26.9583ZM26.6878 22.0833H23.9795C23.531 22.0833 23.167 21.7193 23.167 21.2708C23.167 20.8223 23.531 20.4583 23.9795 20.4583H26.6878C27.1363 20.4583 27.5003 20.8223 27.5003 21.2708C27.5003 21.7193 27.1363 22.0833 26.6878 22.0833ZM28.5837 14.7708C28.5837 15.8163 27.7332 16.6667 26.6878 16.6667H15.3128C14.2674 16.6667 13.417 15.8163 13.417 14.7708V13.1458C13.417 12.1004 14.2674 11.25 15.3128 11.25H26.6878C27.7332 11.25 28.5837 12.1004 28.5837 13.1458V14.7708Z" fill="white"/>
</g>
<defs>
<clipPath id="clip0">
<rect width="26" height="26" fill="white" transform="translate(8 8)"/>
</clipPath>
</defs>
</svg>
