<svg width="36" height="40" viewBox="0 0 36 40" fill="none" xmlns="http://www.w3.org/2000/svg">
<path d="M28.548 19.6448H31.3382C31.969 19.6448 32.4822 19.1316 32.4822 18.5009V15.7107C32.4822 15.0799 31.969 14.5667 31.3382 14.5667H28.548C27.9173 14.5667 27.4041 15.0799 27.4041 15.7107V18.5009C27.4041 19.1316 27.9173 19.6448 28.548 19.6448ZM28.5759 15.7386H31.3103V18.473H28.5759V15.7386ZM28.548 27.0667H31.3382C31.969 27.0667 32.4822 26.5535 32.4822 25.9227V23.1326C32.4822 22.5018 31.969 21.9886 31.3382 21.9886H28.548C27.9173 21.9886 27.4041 22.5018 27.4041 23.1326V25.9227C27.4041 26.5535 27.9173 27.0667 28.548 27.0667ZM28.5759 23.1605H31.3103V25.8948H28.5759V23.1605ZM20.5859 19.6448H23.376C24.0068 19.6448 24.52 19.1316 24.52 18.5009V15.7107C24.52 15.0799 24.0068 14.5667 23.376 14.5667H20.5859C19.9551 14.5667 19.4419 15.0799 19.4419 15.7107V18.5009C19.4419 19.1316 19.9551 19.6448 20.5859 19.6448ZM20.6138 15.7386H23.3481V18.473H20.6138V15.7386ZM7.45164 29.0625H4.66148C4.0307 29.0625 3.5175 29.5757 3.5175 30.2065V32.9966C3.5175 33.6274 4.0307 34.1406 4.66148 34.1406H7.45164C8.08242 34.1406 8.59563 33.6274 8.59563 32.9966V30.2065C8.59563 29.5757 8.08242 29.0625 7.45164 29.0625ZM7.42375 32.9688H4.68938V30.2344H7.42375V32.9688ZM7.45164 14.5667H4.66148C4.0307 14.5667 3.5175 15.0799 3.5175 15.7107V18.5009C3.5175 19.1316 4.0307 19.6448 4.66148 19.6448H7.45164C8.08242 19.6448 8.59563 19.1316 8.59563 18.5009V15.7107C8.59563 15.0798 8.08242 14.5667 7.45164 14.5667ZM7.42375 18.473H4.68938V15.7386H7.42375V18.473ZM20.5859 26.8927H23.376C24.0068 26.8927 24.52 26.3795 24.52 25.7488V22.9586C24.52 22.3278 24.0068 21.8146 23.376 21.8146H20.5859C19.9551 21.8146 19.4419 22.3278 19.4419 22.9586V25.7488C19.4419 26.3795 19.9551 26.8927 20.5859 26.8927ZM20.6138 22.9865H23.3481V25.7209H20.6138V22.9865ZM33.0641 2.67766H30.559V1.7818C30.559 0.799297 29.7597 0 28.7772 0H28.5081C27.5257 0 26.7264 0.799297 26.7264 1.7818V2.67766H9.27328V1.7818C9.27328 0.799297 8.47398 0 7.49148 0H7.22242C6.23992 0 5.44063 0.799297 5.44063 1.7818V2.67766H2.93555C1.31797 2.67766 0.00195312 3.99367 0.00195312 5.61125V37.0703C0.00195312 38.6858 1.31617 40 2.93164 40H33.0682C34.6837 40 35.9979 38.6858 35.9979 37.0703V5.61125C35.9978 3.99367 34.6818 2.67766 33.0641 2.67766ZM27.8983 1.7818C27.8983 1.44547 28.1719 1.17188 28.5082 1.17188H28.7773C29.1136 1.17188 29.3872 1.44547 29.3872 1.7818V2.67766H27.8983V1.7818ZM6.61258 1.7818C6.61258 1.44547 6.88617 1.17188 7.2225 1.17188H7.49156C7.82789 1.17188 8.10149 1.44547 8.10149 1.7818V2.67766H6.61266V1.7818H6.61258ZM34.8259 37.0703C34.8259 38.0396 34.0374 38.8281 33.0681 38.8281H2.93156C1.96227 38.8281 1.17375 38.0396 1.17375 37.0703V37.0666C1.66469 37.4366 2.27492 37.6562 2.93555 37.6562H26.692C27.4756 37.6562 28.2123 37.3511 28.7664 36.797L34.8259 30.7374V37.0703ZM28.1685 35.7376C28.2145 35.548 28.2395 35.3502 28.2395 35.1467V31.2355C28.2395 30.498 28.8395 29.8979 29.5771 29.8979H33.4883C33.6918 29.8979 33.8895 29.8729 34.0791 29.827L28.1685 35.7376ZM34.8259 11.0511H9.85922C9.53563 11.0511 9.27328 11.3134 9.27328 11.637C9.27328 11.9606 9.53563 12.223 9.85922 12.223H34.8259V27.3884C34.8259 28.126 34.2259 28.7261 33.4883 28.7261H29.5771C28.1934 28.7261 27.0676 29.8519 27.0676 31.2355V35.1468C27.0676 35.8844 26.4675 36.4845 25.73 36.4845H2.93555C1.96414 36.4845 1.17383 35.6941 1.17383 34.7227V12.223H7.51547C7.83906 12.223 8.10141 11.9606 8.10141 11.637C8.10141 11.3134 7.83906 11.0511 7.51547 11.0511H1.17375V5.61125C1.17375 4.63984 1.96406 3.84953 2.93547 3.84953H5.44063V5.57234C5.44063 6.55484 6.23992 7.35414 7.22242 7.35414C7.54602 7.35414 7.80836 7.0918 7.80836 6.7682C7.80836 6.44461 7.54602 6.18227 7.22242 6.18227C6.88609 6.18227 6.6125 5.90867 6.6125 5.57234V3.84953H26.7264V5.57234C26.7264 6.55484 27.5257 7.35414 28.5082 7.35414C28.8318 7.35414 29.0941 7.0918 29.0941 6.7682C29.0941 6.44461 28.8318 6.18227 28.5082 6.18227C28.1719 6.18227 27.8983 5.90867 27.8983 5.57234V3.84953H33.0642C34.0356 3.84953 34.8259 4.63984 34.8259 5.61125V11.0511ZM7.45164 21.8146H4.66148C4.0307 21.8146 3.5175 22.3278 3.5175 22.9586V25.7488C3.5175 26.3795 4.0307 26.8927 4.66148 26.8927H7.45164C8.08242 26.8927 8.59563 26.3795 8.59563 25.7488V22.9586C8.59563 22.3277 8.08242 21.8146 7.45164 21.8146ZM7.42375 25.7209H4.68938V22.9865H7.42375V25.7209ZM12.6237 19.6448H15.4138C16.0446 19.6448 16.5578 19.1316 16.5578 18.5009V15.7107C16.5578 15.0799 16.0446 14.5667 15.4138 14.5667H12.6237C11.9929 14.5667 11.4797 15.0799 11.4797 15.7107V18.5009C11.4797 19.1316 11.9929 19.6448 12.6237 19.6448ZM12.6516 15.7386H15.3859V18.473H12.6516V15.7386ZM20.613 32.9688C20.5985 32.658 20.342 32.4107 20.0277 32.4107C19.7041 32.4107 19.4418 32.673 19.4418 32.9966C19.4418 33.6274 19.955 34.1406 20.5858 34.1406H23.3759C24.0067 34.1406 24.5199 33.6274 24.5199 32.9966V30.2065C24.5199 29.5757 24.0067 29.0625 23.3759 29.0625H20.5858C19.955 29.0625 19.4418 29.5757 19.4418 30.2065V31.0112C19.4418 31.3348 19.7041 31.5971 20.0277 31.5971C20.3513 31.5971 20.6137 31.3348 20.6137 31.0112V30.2344H23.348V32.9688H20.613ZM12.6237 26.8927H15.4138C16.0446 26.8927 16.5578 26.3795 16.5578 25.7488V22.9586C16.5578 22.3278 16.0446 21.8146 15.4138 21.8146H12.6237C11.9929 21.8146 11.4797 22.3278 11.4797 22.9586V25.7488C11.4797 26.3795 11.9929 26.8927 12.6237 26.8927ZM12.6516 22.9865H15.3859V25.7209H12.6516V22.9865ZM12.6237 34.1406H15.4138C16.0446 34.1406 16.5578 33.6274 16.5578 32.9966V30.2065C16.5578 29.5757 16.0446 29.0625 15.4138 29.0625H12.6237C11.9929 29.0625 11.4797 29.5757 11.4797 30.2065V32.9966C11.4797 33.6274 11.9929 34.1406 12.6237 34.1406ZM12.6516 30.2344H15.3859V32.9688H12.6516V30.2344Z" fill="#87629E"/>
</svg>
