<svg width="40" height="26" viewBox="0 0 40 26" fill="none" xmlns="http://www.w3.org/2000/svg">
<path d="M37.1998 11.0753L36.164 6.93191C36.4472 6.87176 36.6597 6.62051 36.6597 6.31949V5.65145C36.6597 4.20098 35.4796 3.02098 34.0292 3.02098H29.3111V1.64301C29.3111 0.929258 28.7305 0.348633 28.0167 0.348633H3.96656C3.25281 0.348633 2.67219 0.929258 2.67219 1.64301V13C2.67219 13.3459 2.95258 13.6264 3.29852 13.6264C3.64438 13.6264 3.92484 13.346 3.92484 13V1.64301C3.92484 1.61996 3.94352 1.60129 3.96656 1.60129H28.0166C28.0397 1.60129 28.0584 1.61996 28.0584 1.64301V13.0002C28.0584 13.3461 28.3388 13.6265 28.6847 13.6265C29.0305 13.6265 29.311 13.3461 29.311 13.0002V12.2902H36.6992C36.6998 12.2902 36.7003 12.2904 36.7009 12.2904C36.7015 12.2904 36.702 12.2903 36.7026 12.2903C37.6117 12.2909 38.3837 12.8876 38.6488 13.7099H36.7013C36.3555 13.7099 36.075 13.9903 36.075 14.3362V15.6723C36.075 16.7544 36.9553 17.6347 38.0374 17.6347H38.7473V20.3904H37.1096C36.5716 18.8371 35.095 17.7182 33.361 17.7182C31.627 17.7182 30.1503 18.8371 29.6124 20.3904H29.3109V15.6722C29.3109 15.3264 29.0305 15.0459 28.6845 15.0459C28.3387 15.0459 28.0582 15.3263 28.0582 15.6722V20.3903H15.0638C14.5259 18.8369 13.0492 17.718 11.3152 17.718C9.58125 17.718 8.10453 18.8369 7.56664 20.3903H3.96656C3.94352 20.3903 3.92484 20.3716 3.92484 20.3486V18.9707H6.63883C6.98469 18.9707 7.26516 18.6903 7.26516 18.3443C7.26516 17.9984 6.98477 17.718 6.63883 17.718H0.626328C0.280469 17.718 0 17.9984 0 18.3443C0 18.6903 0.280391 18.9707 0.626328 18.9707H2.67227V20.3486C2.67227 21.0623 3.25289 21.6429 3.96664 21.6429H7.34977C7.34961 21.6568 7.34867 21.6707 7.34867 21.6847C7.34867 23.8718 9.12813 25.6512 11.3152 25.6512C13.5023 25.6512 15.2818 23.8718 15.2818 21.6847C15.2818 21.6706 15.2809 21.6568 15.2807 21.6429H29.3955C29.3954 21.6568 29.3945 21.6707 29.3945 21.6847C29.3945 23.8718 31.1739 25.6512 33.361 25.6512C35.5481 25.6512 37.3276 23.8718 37.3276 21.6847C37.3276 21.6706 37.3266 21.6568 37.3265 21.6429H39.3736C39.7195 21.6429 39.9999 21.3625 39.9999 21.0166V14.3361C40 12.6867 38.783 11.3163 37.1998 11.0753ZM29.3111 4.27355H34.0292C34.789 4.27355 35.4071 4.89168 35.4071 5.65145V5.69316H29.3111V4.27355ZM29.3111 11.0376V6.94574H34.8763L35.8993 11.0376H29.3111ZM11.3152 24.3988C9.81875 24.3988 8.60125 23.1814 8.60125 21.6848C8.60125 20.1882 9.81875 18.9708 11.3152 18.9708C12.8117 18.9708 14.0292 20.1882 14.0292 21.6848C14.0292 23.1814 12.8117 24.3988 11.3152 24.3988ZM33.3612 24.3988C31.8647 24.3988 30.6472 23.1814 30.6472 21.6848C30.6472 20.1882 31.8647 18.9708 33.3612 18.9708C34.8577 18.9708 36.0752 20.1882 36.0752 21.6848C36.0752 23.1814 34.8577 24.3988 33.3612 24.3988ZM38.7474 16.3821H38.0376C37.6462 16.3821 37.3277 16.0636 37.3277 15.6722V14.9624H38.7473V16.3821H38.7474Z" fill="#87629E"/>
</svg>
