<svg width="36" height="40" viewBox="0 0 36 40" fill="none" xmlns="http://www.w3.org/2000/svg">
<path d="M31.9637 17.8608L31.6186 17.8605V15.6614C31.6186 13.9525 32.2956 12.3189 33.1954 11.3115C34.3967 9.96768 35.0582 8.23401 35.0582 6.42995C35.0582 3.9287 33.7585 1.54581 31.6661 0.211199C30.7738 -0.357942 29.6023 0.290965 29.6023 1.34878V5.96526C29.6023 6.99753 28.7625 7.83729 27.7303 7.83729C26.698 7.83729 25.8582 6.99753 25.8582 5.96526V1.34886C25.8582 0.288543 24.6843 -0.356614 23.7943 0.211277C21.702 1.54581 20.4022 3.9287 20.4022 6.43003C20.4022 8.23409 21.0638 9.96776 22.2648 11.3112C23.0365 12.1766 23.6797 13.566 23.8135 15.0512C22.1922 15.1982 20.7683 15.9267 19.8434 17.1012L18.8434 18.3711C18.3429 19.0068 17.5916 19.3714 16.7824 19.3714H15.8944C15.8611 18.1396 14.8493 17.1475 13.6096 17.1475C12.5527 17.1475 11.6614 17.8685 11.4006 18.8444H2.82543C1.78598 18.8444 0.94043 19.69 0.94043 20.7294V30.5847C0.94043 31.6242 1.78605 32.4697 2.82543 32.4697H11.5897C11.9742 33.1928 12.7352 33.6865 13.6097 33.6865C14.7385 33.6865 15.6782 32.8641 15.8627 31.7871H18.0981C18.432 31.7871 18.7586 31.8497 19.0689 31.9733C20.8259 32.6127 21.6952 33.1985 23.8421 33.5774V36.112C23.8421 38.256 25.5864 40.0003 27.7304 40.0003C29.8743 40.0003 31.6186 38.256 31.6186 36.112V32.7217C31.9012 32.2948 32.0413 31.7914 32.0166 31.2667C31.9943 30.7933 31.8274 30.3436 31.552 29.9684C32.4486 29.6321 33.0879 28.7781 33.0893 27.7803C33.0901 27.071 32.8284 26.4406 32.3944 25.987C33.018 25.5601 33.4392 24.8616 33.4654 24.0739C33.4848 23.4942 33.295 22.9489 32.9627 22.515C33.81 22.1333 34.4011 21.2818 34.4011 20.295C34.4011 18.9527 33.3075 17.8608 31.9637 17.8608ZM14.7243 31.3999C14.7243 32.0145 14.2243 32.5145 13.6096 32.5145C12.995 32.5145 12.4951 32.0145 12.4951 31.3999V29.9715C12.4951 29.6479 12.2328 29.3856 11.9092 29.3856C11.5856 29.3856 11.3232 29.6479 11.3232 29.9715V31.2978H2.82543C2.43223 31.2978 2.1123 30.9778 2.1123 30.5846V20.7293C2.1123 20.3361 2.43223 20.0162 2.82543 20.0162H11.3232V27.2305C11.3232 27.5541 11.5856 27.8164 11.9092 27.8164C12.2328 27.8164 12.4951 27.5541 12.4951 27.2305V19.436C12.4951 19.435 12.4951 19.4341 12.4951 19.4332C12.4955 18.8189 12.9954 18.3193 13.6096 18.3193C14.2243 18.3193 14.7242 18.8193 14.7242 19.4339V31.3999H14.7243ZM23.1389 10.5305C22.1299 9.40175 21.5742 7.9455 21.5742 6.42995C21.5742 4.32495 22.6664 2.32065 24.4246 1.19925C24.5379 1.1269 24.6864 1.21331 24.6864 1.34886V5.96534C24.6864 7.64378 26.0518 9.00925 27.7303 9.00925C29.4087 9.00925 30.7742 7.64378 30.7742 5.96534V1.34886C30.7742 1.21354 30.9224 1.12675 31.036 1.19925C32.7942 2.32073 33.8864 4.32503 33.8864 6.42995C33.8864 7.9455 33.3307 9.40175 32.3215 10.5307C31.2373 11.7451 30.4466 13.6539 30.4466 15.6614V17.8596L29.4199 17.8588V16.6497C29.4199 16.3261 29.1575 16.0638 28.8339 16.0638C28.5104 16.0638 28.248 16.3261 28.248 16.6497V17.8578L27.2124 17.857V13.4914C27.2124 13.2059 27.4447 12.9736 27.7302 12.9736C28.0157 12.9736 28.248 13.2059 28.248 13.4914V13.9086C28.248 14.2322 28.5104 14.4946 28.8339 14.4946C29.1575 14.4946 29.4199 14.2322 29.4199 13.9086V13.4914C29.4199 12.5597 28.6619 11.8017 27.7302 11.8017C26.7985 11.8017 26.0405 12.5597 26.0405 13.4914V17.856L25.6106 17.8557C25.2438 17.8557 25.0132 17.5698 25.0132 17.2155C25.0139 15.826 25.2758 12.9249 23.1389 10.5305ZM30.4467 36.1117C30.4467 37.6096 29.2281 38.8282 27.7303 38.8282C26.2325 38.8282 25.0139 37.6096 25.0139 36.1117V33.7333C25.3549 33.7642 25.6972 33.7828 26.0406 33.7886V35.94C26.0406 36.8717 26.7986 37.6297 27.7303 37.6297C28.662 37.6297 29.42 36.8717 29.42 35.94V33.816C29.4879 33.8113 29.9318 33.8556 30.4467 33.6614V36.1117ZM27.2125 35.94V33.7985L28.2481 33.8067V35.94C28.2481 36.2256 28.0158 36.4578 27.7303 36.4578C27.4448 36.4578 27.2125 36.2256 27.2125 35.94ZM31.9632 21.557H31.2419C30.9183 21.557 30.656 21.8193 30.656 22.1429V22.1549C30.656 22.4532 30.88 22.7038 31.1763 22.7372C31.825 22.8103 32.3161 23.3802 32.2942 24.0347C32.2718 24.7065 31.6842 25.2532 30.984 25.2532L30.7331 25.2533C30.4096 25.2535 30.1475 25.5178 30.1475 25.8413C30.1475 26.156 30.3961 26.4146 30.7107 26.4267C31.4108 26.4539 31.9183 27.0224 31.9174 27.7786C31.9165 28.4242 31.3725 28.9493 30.7048 28.9493H30.3107C29.9443 28.9493 29.6461 29.2474 29.6461 29.6138C29.6461 29.8819 29.8063 30.1224 30.0542 30.2263C30.52 30.4216 30.8235 30.8414 30.8461 31.3216C30.8801 32.0455 30.3033 32.6455 29.59 32.6455C26.4261 32.5977 25.8085 32.6781 24.4984 32.4949C24.4941 32.4944 24.4899 32.4936 24.4855 32.4932C22.1999 32.1714 21.1155 31.4612 19.5025 30.8846C19.0537 30.7058 18.5812 30.6151 18.0981 30.6151H15.8961V20.5432H16.7825C17.9532 20.5432 19.04 20.0157 19.7643 19.096L20.7642 17.8262C21.4733 16.9257 22.5739 16.3588 23.8415 16.2254V17.2155C23.8412 18.2186 24.5964 19.0278 25.6103 19.0278C26.3723 19.0284 30.2762 19.0315 31.0322 19.0321H31.0327H31.0332L31.9633 19.0329C32.6614 19.0329 33.2293 19.5991 33.2293 20.2951C33.2292 20.9908 32.6613 21.557 31.9632 21.557Z" fill="#87629E"/>
</svg>
