<svg viewBox="0 0 24 24" fill="none" xmlns="http://www.w3.org/2000/svg">
<circle cx="12" cy="12" r="12" fill="#87629E"/>
<path d="M12.0002 10.0771C10.9416 10.0771 10.0776 10.9411 10.0776 11.9997C10.0776 13.0584 10.9416 13.9223 12.0002 13.9223C13.0589 13.9223 13.9228 13.0584 13.9228 11.9997C13.9228 10.9411 13.0589 10.0771 12.0002 10.0771ZM17.7666 11.9997C17.7666 11.2036 17.7738 10.4146 17.7291 9.6199C17.6844 8.69682 17.4738 7.87759 16.7988 7.20259C16.1223 6.52615 15.3045 6.31702 14.3815 6.2723C13.5853 6.22759 12.7964 6.2348 12.0017 6.2348C11.2055 6.2348 10.4166 6.22759 9.62185 6.2723C8.69878 6.31702 7.87955 6.52759 7.20455 7.20259C6.5281 7.87903 6.31897 8.69682 6.27426 9.6199C6.22955 10.4161 6.23676 11.205 6.23676 11.9997C6.23676 12.7944 6.22955 13.5848 6.27426 14.3795C6.31897 15.3026 6.52955 16.1218 7.20455 16.7968C7.88099 17.4733 8.69878 17.6824 9.62185 17.7271C10.418 17.7718 11.2069 17.7646 12.0017 17.7646C12.7978 17.7646 13.5868 17.7718 14.3815 17.7271C15.3045 17.6824 16.1238 17.4718 16.7988 16.7968C17.4752 16.1204 17.6844 15.3026 17.7291 14.3795C17.7752 13.5848 17.7666 12.7959 17.7666 11.9997ZM12.0002 14.9579C10.3632 14.9579 9.04205 13.6367 9.04205 11.9997C9.04205 10.3627 10.3632 9.04153 12.0002 9.04153C13.6372 9.04153 14.9584 10.3627 14.9584 11.9997C14.9584 13.6367 13.6372 14.9579 12.0002 14.9579ZM15.0795 9.61125C14.6973 9.61125 14.3887 9.30259 14.3887 8.92038C14.3887 8.53817 14.6973 8.22952 15.0795 8.22952C15.4618 8.22952 15.7704 8.53817 15.7704 8.92038C15.7705 9.01114 15.7527 9.10103 15.7181 9.1849C15.6834 9.26877 15.6325 9.34498 15.5683 9.40915C15.5041 9.47333 15.4279 9.52421 15.3441 9.55889C15.2602 9.59357 15.1703 9.61136 15.0795 9.61125Z" fill="white"/>
</svg>
