<svg width="40" height="40" viewBox="0 0 40 40" fill="none" xmlns="http://www.w3.org/2000/svg">
<path d="M12.9443 8.01891C13.2679 8.01891 13.5302 7.75664 13.5302 7.43297V5.96289H14.9865C15.3102 5.96289 15.5725 5.70063 15.5725 5.37695C15.5725 5.05328 15.3102 4.79102 14.9865 4.79102H13.3832C12.8182 4.79102 12.3584 5.25078 12.3584 5.81594V7.43289C12.3583 7.75656 12.6206 8.01891 12.9443 8.01891V8.01891Z" fill="#87629E"/>
<path d="M33.4043 5.96289H34.8337V7.43289C34.8337 7.75656 35.0959 8.01883 35.4196 8.01883C35.7433 8.01883 36.0055 7.75656 36.0055 7.43289V5.81594C36.0055 5.25078 35.5458 4.79102 34.9806 4.79102H33.4043C33.0806 4.79102 32.8184 5.05328 32.8184 5.37695C32.8184 5.70063 33.0807 5.96289 33.4043 5.96289Z" fill="#87629E"/>
<path d="M33.4043 28.4392H34.9806C35.5458 28.4392 36.0055 27.9795 36.0055 27.4143V25.8516C36.0055 25.5279 35.7433 25.2656 35.4196 25.2656C35.0959 25.2656 34.8337 25.5279 34.8337 25.8516V27.2673H33.4043C33.0806 27.2673 32.8184 27.5296 32.8184 27.8533C32.8184 28.177 33.0807 28.4392 33.4043 28.4392V28.4392Z" fill="#87629E"/>
<path d="M13.3833 28.4392H14.9866C15.3103 28.4392 15.5725 28.177 15.5725 27.8533C15.5725 27.5296 15.3103 27.2673 14.9866 27.2673H13.5303V25.8516C13.5303 25.5279 13.268 25.2656 12.9443 25.2656C12.6207 25.2656 12.3584 25.5279 12.3584 25.8516V27.4143C12.3585 27.9795 12.8182 28.4392 13.3833 28.4392V28.4392Z" fill="#87629E"/>
<path d="M38.4072 31.7116H8.7093C8.47719 31.7116 8.28836 31.5228 8.28836 31.2907V1.59281C8.28836 0.714531 7.57375 0 6.69547 0H1.59281C0.714531 0 0 0.714531 0 1.59281V11.1238C0 11.4475 0.262266 11.7098 0.585938 11.7098C0.909609 11.7098 1.17188 11.4475 1.17188 11.1238V1.59281C1.17188 1.3607 1.3607 1.17188 1.59281 1.17188H6.69547C6.92766 1.17188 7.11648 1.3607 7.11648 1.59281V4.44008H5.13023C4.80656 4.44008 4.5443 4.70234 4.5443 5.02602C4.5443 5.34969 4.80656 5.61195 5.13023 5.61195H7.11648V8.17383H5.89844C5.57477 8.17383 5.3125 8.43609 5.3125 8.75977C5.3125 9.08344 5.57477 9.3457 5.89844 9.3457H7.11648V11.9075H5.13023C4.80656 11.9075 4.5443 12.1698 4.5443 12.4934C4.5443 12.8171 4.80656 13.0794 5.13023 13.0794H7.11648V15.6412H5.89844C5.57477 15.6412 5.3125 15.9035 5.3125 16.2272C5.3125 16.5509 5.57477 16.8131 5.89844 16.8131H7.11648V19.3749H5.13023C4.80656 19.3749 4.5443 19.6372 4.5443 19.9609C4.5443 20.2845 4.80656 20.5468 5.13023 20.5468H7.11648V23.1087H5.89844C5.57477 23.1087 5.3125 23.3709 5.3125 23.6946C5.3125 24.0183 5.57477 24.2805 5.89844 24.2805H7.11648V26.8424H5.13023C4.80656 26.8424 4.5443 27.1047 4.5443 27.4284C4.5443 27.752 4.80656 28.0143 5.13023 28.0143H7.11648V31.2907C7.11648 31.5155 7.16328 31.7295 7.24766 31.9236L1.17188 37.9995V13.863C1.17188 13.5394 0.909609 13.2771 0.585938 13.2771C0.262266 13.2771 0 13.5394 0 13.863V38.4072C0 39.2851 0.714063 40 1.59281 40H38.4073C39.2855 40 40.0001 39.2855 40.0001 38.4072V33.3045C40 32.4263 39.2855 31.7116 38.4072 31.7116V31.7116ZM38.8281 38.4072C38.8281 38.6393 38.6393 38.8281 38.4072 38.8281H2.00055L8.07633 32.7523C8.27039 32.8367 8.48445 32.8835 8.70922 32.8835H11.6137V34.8709C11.6137 35.1946 11.8759 35.4569 12.1996 35.4569C12.5233 35.4569 12.7855 35.1946 12.7855 34.8709V32.8835H15.3474V34.1027C15.3474 34.4264 15.6097 34.6887 15.9334 34.6887C16.257 34.6887 16.5193 34.4264 16.5193 34.1027V32.8835H19.0811V34.8709C19.0811 35.1946 19.3434 35.4569 19.667 35.4569C19.9907 35.4569 20.253 35.1946 20.253 34.8709V32.8835H22.8148V34.1027C22.8148 34.4264 23.0771 34.6887 23.4008 34.6887C23.7245 34.6887 23.9867 34.4264 23.9867 34.1027V32.8835H26.5485V34.8709C26.5485 35.1946 26.8108 35.4569 27.1345 35.4569C27.4581 35.4569 27.7204 35.1946 27.7204 34.8709V32.8835H30.2823V34.1027C30.2823 34.4264 30.5445 34.6887 30.8682 34.6887C31.1919 34.6887 31.4541 34.4264 31.4541 34.1027V32.8835H34.0159V34.8709C34.0159 35.1946 34.2782 35.4569 34.6019 35.4569C34.9255 35.4569 35.1878 35.1946 35.1878 34.8709V32.8835H38.4072C38.6393 32.8835 38.8281 33.0723 38.8281 33.3045V38.4072Z" fill="#87629E"/>
<path d="M16.5943 22.0139L23.3008 25.886C23.8445 26.1999 24.5199 26.2 25.0635 25.886L31.77 22.0139C32.3137 21.7001 32.6514 21.1152 32.6514 20.4874V12.7433C32.6514 12.1164 32.3143 11.5309 31.7701 11.2168L25.0636 7.3448C24.5199 7.0309 23.8445 7.0309 23.3008 7.3448L16.5944 11.2168C16.0511 11.5304 15.7129 12.1153 15.7129 12.7434V20.4875C15.7129 21.1152 16.0506 21.7002 16.5943 22.0139V22.0139ZM17.1802 20.9991C16.998 20.8939 16.8848 20.6978 16.8848 20.4874V13.0788L23.5963 16.9536V24.7034L17.1802 20.9991ZM23.8867 8.35965C24.0689 8.25441 24.2953 8.25426 24.4776 8.35965L30.8936 12.0639L28.6838 13.3397C28.4036 13.5015 28.3076 13.8599 28.4694 14.1401C28.6319 14.4218 28.9909 14.5156 29.2698 14.3546L31.4795 13.0788V20.4874C31.4795 20.6978 31.3664 20.8939 31.1842 20.9991L24.7681 24.7033V16.9536L26.8569 15.7477C27.1371 15.5859 27.2331 15.2275 27.0713 14.9473C26.9096 14.6671 26.551 14.5711 26.2709 14.7329L24.1822 15.9388L17.4707 12.0639L23.8867 8.35965Z" fill="#87629E"/>
</svg>
