<svg viewBox="0 0 137 63" fill="none" xmlns="http://www.w3.org/2000/svg">
<path d="M1.848 35V34.472L4.488 33.152L5.181 15.068L2.343 13.748V13.22H8.91L16.302 30.281L23.661 13.22H29.964V13.748L27.159 14.969L27.72 33.152L30.096 34.472V35H21.945V34.472L24.42 33.185L24.09 17.048L16.302 35.165H14.718L6.996 17.246L6.567 33.185L9.306 34.472V35H1.848ZM47.0206 35.33C45.4366 35.33 43.9626 35.055 42.5986 34.505C41.2566 33.933 40.0796 33.152 39.0676 32.162C38.0776 31.15 37.3076 29.962 36.7576 28.598C36.2076 27.234 35.9326 25.738 35.9326 24.11C35.9326 22.482 36.2076 20.986 36.7576 19.622C37.3076 18.258 38.0776 17.081 39.0676 16.091C40.0796 15.079 41.2566 14.298 42.5986 13.748C43.9626 13.176 45.4366 12.89 47.0206 12.89C48.6046 12.89 50.0676 13.176 51.4096 13.748C52.7736 14.298 53.9506 15.079 54.9406 16.091C55.9526 17.081 56.7336 18.258 57.2836 19.622C57.8556 20.986 58.1416 22.482 58.1416 24.11C58.1416 25.738 57.8556 27.234 57.2836 28.598C56.7336 29.962 55.9526 31.15 54.9406 32.162C53.9506 33.152 52.7736 33.933 51.4096 34.505C50.0676 35.055 48.6046 35.33 47.0206 35.33ZM47.6806 33.68C49.0226 33.68 50.1996 33.328 51.2116 32.624C52.2236 31.92 53.0156 30.93 53.5876 29.654C54.1596 28.378 54.4456 26.871 54.4456 25.133C54.4456 22.999 54.0936 21.14 53.3896 19.556C52.6856 17.95 51.7286 16.707 50.5186 15.827C49.3086 14.947 47.9666 14.507 46.4926 14.507C45.1506 14.507 43.9626 14.859 42.9286 15.563C41.8946 16.245 41.0806 17.224 40.4866 18.5C39.9146 19.776 39.6286 21.283 39.6286 23.021C39.6286 25.155 39.9806 27.025 40.6846 28.631C41.4106 30.237 42.3786 31.48 43.5886 32.36C44.8206 33.24 46.1846 33.68 47.6806 33.68ZM64.1059 35V34.472L66.7789 33.152V15.134L64.1389 13.748V13.22H69.3199L81.9589 28.763V15.035L78.5599 13.748V13.22H86.9089V13.748L84.2689 15.035V35.165H82.8499L69.0889 18.269V33.185L72.4879 34.472V35H64.1059ZM96.8991 35V34.472L100.232 33.152V15.035H95.0181L92.6751 20.018H92.1471V13.22H111.749V20.018H111.221L108.911 15.035H103.664V33.152L107.03 34.472V35H96.8991ZM117.118 35V34.472L119.791 33.152V15.068L117.118 13.748V13.22H133.684V18.896H133.156L131.011 15.035H123.256V22.856H128.734L130.417 20.084H130.945V27.377H130.417L128.734 24.671H123.256V33.185H131.902L134.08 28.829H134.608V35H117.118Z" fill="#303030"/>
<path d="M5.25 58.4091L2.625 52.3636H1.07386V60H2.24716V54.049L4.77273 60H5.72727L8.25284 54.1584V60H9.42614V52.3636H7.91477L5.25 58.4091ZM14.7756 60.1591C16.3267 60.1591 17.4602 59.3835 17.8182 58.2301L16.6847 57.9119C16.3864 58.7074 15.6953 59.1051 14.7756 59.1051C13.3984 59.1051 12.4489 58.2152 12.3942 56.5795H17.9375V56.0824C17.9375 53.2386 16.2472 52.2642 14.6562 52.2642C12.5881 52.2642 11.2159 53.8949 11.2159 56.2415C11.2159 58.5881 12.5682 60.1591 14.7756 60.1591ZM12.3942 55.5653C12.4737 54.3771 13.3139 53.3182 14.6562 53.3182C15.929 53.3182 16.7443 54.2727 16.7443 55.5653H12.3942ZM25.3899 49.5C25.017 49.8132 24.4602 49.8132 23.6797 49.8082C23.4261 49.8082 23.1477 49.8082 22.8445 49.8182C20.5178 49.8778 19.3643 51.6477 19.3643 55.0483V55.8636C19.3643 58.6875 20.7365 60.1591 22.7848 60.1591C24.8281 60.1591 26.1854 58.6776 26.1854 56.2812C26.1854 53.875 24.8082 52.6023 23.0234 52.6023C21.9744 52.6023 20.995 53.0398 20.478 53.9943H20.3786C20.5376 52.0256 21.2734 50.9716 22.8643 50.9119C24.2763 50.8523 25.2905 50.892 25.9865 50.2159L25.3899 49.5ZM22.7848 59.1051C21.3928 59.1051 20.5376 57.9915 20.5376 56.2812C20.5625 54.6108 21.4027 53.6562 22.7649 53.6562C24.1619 53.6562 25.0121 54.6108 25.0121 56.2812C25.0121 58.0014 24.1669 59.1051 22.7848 59.1051ZM31.1818 60.1591C32.733 60.1591 33.8665 59.3835 34.2244 58.2301L33.0909 57.9119C32.7926 58.7074 32.1016 59.1051 31.1818 59.1051C29.8047 59.1051 28.8551 58.2152 28.8004 56.5795H34.3438V56.0824C34.3438 53.2386 32.6534 52.2642 31.0625 52.2642C28.9943 52.2642 27.6222 53.8949 27.6222 56.2415C27.6222 58.5881 28.9744 60.1591 31.1818 60.1591ZM28.8004 55.5653C28.88 54.3771 29.7202 53.3182 31.0625 53.3182C32.3352 53.3182 33.1506 54.2727 33.1506 55.5653H28.8004ZM35.4524 60H35.8501C37.5405 60 38.0277 58.6875 38.1371 56.1818L38.2564 53.4574H41.0604V60H42.2337V52.3636H37.1428L37.0036 55.7443C36.9041 58.3097 36.6456 58.9062 35.7308 58.9062H35.4524V60ZM45.5597 55.1278V52.3636H44.3864V60H47.5881C49.3778 60 50.3523 58.9062 50.3523 57.5341C50.3523 56.142 49.3778 55.1278 47.5881 55.1278H45.5597ZM45.5597 56.2216H47.5881C48.5178 56.2216 49.179 56.7884 49.179 57.5938C49.179 58.3643 48.5178 58.9062 47.5881 58.9062H45.5597V56.2216ZM53.3116 52.3636H52.1383V60H53.3116V56.7386H56.9707V60H58.144V52.3636H56.9707V55.6449H53.3116V52.3636ZM62.5339 60.179C63.8663 60.179 64.5623 59.4631 64.801 58.9659H64.8606V60H66.0339V54.9688C66.0339 52.5426 64.1845 52.2642 63.21 52.2642C62.0566 52.2642 60.7441 52.6619 60.1475 54.054L61.2612 54.4517C61.5197 53.8949 62.1312 53.2983 63.2498 53.2983C64.3287 53.2983 64.8606 53.87 64.8606 54.8494V54.8892C64.8606 55.456 64.2839 55.4062 62.8919 55.5852C61.475 55.7692 59.9288 56.0824 59.9288 57.8324C59.9288 59.3239 61.0822 60.179 62.5339 60.179ZM62.7129 59.125C61.7782 59.125 61.1021 58.7074 61.1021 57.892C61.1021 56.9972 61.9174 56.7188 62.8322 56.5994C63.3294 56.5398 64.6618 56.4006 64.8606 56.1619V57.2358C64.8606 58.1903 64.1049 59.125 62.7129 59.125ZM72.7692 60H73.8828V52.3636H70.7408C69.0952 52.3636 68.0959 53.2237 68.0959 54.6307C68.0959 55.6797 68.6229 56.4254 69.5426 56.7386L67.6783 60H68.951L70.7209 56.8977H72.7692V60ZM72.7692 55.804H70.6016C69.7713 55.804 69.2692 55.3615 69.2692 54.6307C69.2692 53.8899 69.826 53.4375 70.7408 53.4375H72.7692V55.804ZM83.0765 62.6051H84.2498V60.1591C86.318 60.1591 87.71 58.5881 87.71 56.2216C87.71 53.8352 86.318 52.2642 84.2498 52.2642V49.8182H83.0765V52.2642C81.0083 52.2642 79.6163 53.8352 79.6163 56.2216C79.6163 58.5881 81.0083 60.1591 83.0765 60.1591V62.6051ZM84.2498 59.1051V53.3182C85.8208 53.3182 86.5368 54.6903 86.5368 56.2216C86.5368 57.7528 85.8208 59.1051 84.2498 59.1051ZM83.0765 59.1051C81.5055 59.1051 80.7896 57.7528 80.7896 56.2216C80.7896 54.6903 81.5055 53.3182 83.0765 53.3182V59.1051ZM91.7507 60.179C93.0831 60.179 93.7791 59.4631 94.0178 58.9659H94.0774V60H95.2507V54.9688C95.2507 52.5426 93.4013 52.2642 92.4268 52.2642C91.2734 52.2642 89.9609 52.6619 89.3643 54.054L90.478 54.4517C90.7365 53.8949 91.348 53.2983 92.4666 53.2983C93.5455 53.2983 94.0774 53.87 94.0774 54.8494V54.8892C94.0774 55.456 93.5007 55.4062 92.1087 55.5852C90.6918 55.7692 89.1456 56.0824 89.1456 57.8324C89.1456 59.3239 90.299 60.179 91.7507 60.179ZM91.9297 59.125C90.995 59.125 90.3189 58.7074 90.3189 57.892C90.3189 56.9972 91.1342 56.7188 92.049 56.5994C92.5462 56.5398 93.8786 56.4006 94.0774 56.1619V57.2358C94.0774 58.1903 93.3217 59.125 91.9297 59.125ZM103.06 49.5C102.687 49.8132 102.13 49.8132 101.35 49.8082C101.096 49.8082 100.818 49.8082 100.514 49.8182C98.1877 49.8778 97.0343 51.6477 97.0343 55.0483V55.8636C97.0343 58.6875 98.4064 60.1591 100.455 60.1591C102.498 60.1591 103.855 58.6776 103.855 56.2812C103.855 53.875 102.478 52.6023 100.693 52.6023C99.6444 52.6023 98.665 53.0398 98.1479 53.9943H98.0485C98.2076 52.0256 98.9434 50.9716 100.534 50.9119C101.946 50.8523 102.96 50.892 103.656 50.2159L103.06 49.5ZM100.455 59.1051C99.0627 59.1051 98.2076 57.9915 98.2076 56.2812C98.2324 54.6108 99.0726 53.6562 100.435 53.6562C101.832 53.6562 102.682 54.6108 102.682 56.2812C102.682 58.0014 101.837 59.1051 100.455 59.1051ZM105.65 62.8636H106.823V58.8267H106.923C107.181 59.2443 107.678 60.1591 109.15 60.1591C111.059 60.1591 112.392 58.6278 112.392 56.2017C112.392 53.7955 111.059 52.2642 109.13 52.2642C107.639 52.2642 107.181 53.179 106.923 53.5767H106.784V52.3636H105.65V62.8636ZM106.803 56.1818C106.803 54.4716 107.559 53.3182 108.991 53.3182C110.482 53.3182 111.218 54.571 111.218 56.1818C111.218 57.8125 110.463 59.1051 108.991 59.1051C107.579 59.1051 106.803 57.9119 106.803 56.1818ZM115.355 58.2699V52.3636H114.181V60H115.553L119.213 54.0938V60H120.386V52.3636H119.034L115.355 58.2699ZM122.535 60H123.708V56.7784H124.762L127.268 60H128.779L125.657 56.0426L128.739 52.3636H127.228L124.484 55.6847H123.708V52.3636H122.535V60ZM132.301 60.179C133.634 60.179 134.33 59.4631 134.569 58.9659H134.628V60H135.801V54.9688C135.801 52.5426 133.952 52.2642 132.978 52.2642C131.824 52.2642 130.512 52.6619 129.915 54.054L131.029 54.4517C131.287 53.8949 131.899 53.2983 133.017 53.2983C134.096 53.2983 134.628 53.87 134.628 54.8494V54.8892C134.628 55.456 134.051 55.4062 132.659 55.5852C131.243 55.7692 129.696 56.0824 129.696 57.8324C129.696 59.3239 130.85 60.179 132.301 60.179ZM132.48 59.125C131.546 59.125 130.87 58.7074 130.87 57.892C130.87 56.9972 131.685 56.7188 132.6 56.5994C133.097 56.5398 134.429 56.4006 134.628 56.1619V57.2358C134.628 58.1903 133.873 59.125 132.48 59.125Z" fill="#444444"/>
</svg>
