<svg width="58" height="11" viewBox="0 0 58 11" fill="none" xmlns="http://www.w3.org/2000/svg">
<path d="M0.784 10V9.776L1.904 9.216L2.198 1.544L0.994 0.983999V0.76H3.78L6.916 7.998L10.038 0.76H12.712V0.983999L11.522 1.502L11.76 9.216L12.768 9.776V10H9.31V9.776L10.36 9.23L10.22 2.384L6.916 10.07H6.244L2.968 2.468L2.786 9.23L3.948 9.776V10H0.784ZM20.0181 10.14C19.3461 10.14 18.7208 10.0233 18.1421 9.79C17.5728 9.54733 17.0735 9.216 16.6441 8.796C16.2241 8.36667 15.8975 7.86267 15.6641 7.284C15.4308 6.70533 15.3141 6.07067 15.3141 5.38C15.3141 4.68933 15.4308 4.05467 15.6641 3.476C15.8975 2.89733 16.2241 2.398 16.6441 1.978C17.0735 1.54867 17.5728 1.21733 18.1421 0.983999C18.7208 0.741333 19.3461 0.62 20.0181 0.62C20.6901 0.62 21.3108 0.741333 21.8801 0.983999C22.4588 1.21733 22.9581 1.54867 23.3781 1.978C23.8075 2.398 24.1388 2.89733 24.3721 3.476C24.6148 4.05467 24.7361 4.68933 24.7361 5.38C24.7361 6.07067 24.6148 6.70533 24.3721 7.284C24.1388 7.86267 23.8075 8.36667 23.3781 8.796C22.9581 9.216 22.4588 9.54733 21.8801 9.79C21.3108 10.0233 20.6901 10.14 20.0181 10.14ZM20.2981 9.44C20.8675 9.44 21.3668 9.29067 21.7961 8.992C22.2255 8.69333 22.5615 8.27333 22.8041 7.732C23.0468 7.19067 23.1681 6.55133 23.1681 5.814C23.1681 4.90867 23.0188 4.12 22.7201 3.448C22.4215 2.76667 22.0155 2.23933 21.5021 1.866C20.9888 1.49267 20.4195 1.306 19.7941 1.306C19.2248 1.306 18.7208 1.45533 18.2821 1.754C17.8435 2.04333 17.4981 2.45867 17.2461 3C17.0035 3.54133 16.8821 4.18067 16.8821 4.918C16.8821 5.82333 17.0315 6.61667 17.3301 7.298C17.6381 7.97933 18.0488 8.50667 18.5621 8.88C19.0848 9.25333 19.6635 9.44 20.2981 9.44ZM27.3364 10V9.776L28.4704 9.216V1.572L27.3504 0.983999V0.76H29.5484L34.9104 7.354V1.53L33.4684 0.983999V0.76H37.0104V0.983999L35.8904 1.53V10.07H35.2884L29.4504 2.902V9.23L30.8924 9.776V10H27.3364ZM41.3187 10V9.776L42.7327 9.216V1.53H40.5207L39.5267 3.644H39.3027V0.76H47.6187V3.644H47.3947L46.4147 1.53H44.1887V9.216L45.6167 9.776V10H41.3187ZM49.9663 10V9.776L51.1003 9.216V1.544L49.9663 0.983999V0.76H56.9943V3.168H56.7703L55.8603 1.53H52.5703V4.848H54.8943L55.6083 3.672H55.8323V6.766H55.6083L54.8943 5.618H52.5703V9.23H56.2383L57.1623 7.382H57.3863V10H49.9663Z" fill="#303030"/>
</svg>
