<svg width="137" height="64" viewBox="0 0 137 64" fill="none" xmlns="http://www.w3.org/2000/svg">
<path d="M1.84889 35.1875V34.6592L4.49016 33.3386L5.18349 15.2459L2.34413 13.9253V13.397H8.91429L16.3098 30.4662L23.6724 13.397H29.9784V13.9253L27.1721 15.1469L27.7333 33.3386L30.1105 34.6592V35.1875H21.9556V34.6592L24.4317 33.3716L24.1016 17.2269L16.3098 35.3526H14.7251L6.99937 17.425L6.57016 33.3716L9.31048 34.6592V35.1875H1.84889ZM47.0432 35.5177C45.4585 35.5177 43.9838 35.2425 42.6191 34.6923C41.2765 34.12 40.0989 33.3386 39.0864 32.3481C38.0959 31.3356 37.3256 30.1471 36.7753 28.7824C36.225 27.4178 35.9499 25.921 35.9499 24.2923C35.9499 22.6635 36.225 21.1668 36.7753 19.8021C37.3256 18.4374 38.0959 17.2599 39.0864 16.2694C40.0989 15.2569 41.2765 14.4755 42.6191 13.9253C43.9838 13.353 45.4585 13.0669 47.0432 13.0669C48.628 13.0669 50.0917 13.353 51.4344 13.9253C52.799 14.4755 53.9766 15.2569 54.967 16.2694C55.9795 17.2599 56.7609 18.4374 57.3112 19.8021C57.8835 21.1668 58.1696 22.6635 58.1696 24.2923C58.1696 25.921 57.8835 27.4178 57.3112 28.7824C56.7609 30.1471 55.9795 31.3356 54.967 32.3481C53.9766 33.3386 52.799 34.12 51.4344 34.6923C50.0917 35.2425 48.628 35.5177 47.0432 35.5177ZM47.7036 33.8669C49.0462 33.8669 50.2238 33.5147 51.2363 32.8104C52.2487 32.106 53.0411 31.1155 53.6134 29.8389C54.1857 28.5623 54.4718 27.0546 54.4718 25.3158C54.4718 23.1807 54.1196 21.3208 53.4153 19.7361C52.711 18.1293 51.7535 16.8857 50.5429 16.0053C49.3323 15.1249 47.9897 14.6846 46.515 14.6846C45.1723 14.6846 43.9838 15.0368 42.9493 15.7411C41.9148 16.4235 41.1004 17.4029 40.5061 18.6796C39.9338 19.9562 39.6477 21.4639 39.6477 23.2027C39.6477 25.3378 39.9999 27.2087 40.7042 28.8154C41.4305 30.4222 42.399 31.6658 43.6096 32.5462C44.8422 33.4267 46.2068 33.8669 47.7036 33.8669ZM64.1367 35.1875V34.6592L66.811 33.3386V15.3119L64.1697 13.9253V13.397H69.3532L81.9983 28.9475V15.2129L78.5976 13.9253V13.397H86.9507V13.9253L84.3094 15.2129V35.3526H82.8897L69.1221 18.4484V33.3716L72.5227 34.6592V35.1875H64.1367ZM96.9457 35.1875V34.6592L100.28 33.3386V15.2129H95.0638L92.7197 20.1983H92.1914V13.397H111.803V20.1983H111.275L108.963 15.2129H103.714V33.3386L107.082 34.6592V35.1875H96.9457ZM117.174 35.1875V34.6592L119.848 33.3386V15.2459L117.174 13.9253V13.397H133.748V19.0758H133.22L131.074 15.2129H123.315V23.0377H128.796L130.48 20.2643H131.008V27.5608H130.48L128.796 24.8535H123.315V33.3716H131.965L134.144 29.0135H134.673V35.1875H117.174Z" fill="#232323"/>
<path d="M5.25 58.5966L2.625 52.5511H1.07386V60.1875H2.24716V54.2365L4.77273 60.1875H5.72727L8.25284 54.3459V60.1875H9.42614V52.5511H7.91477L5.25 58.5966ZM14.7756 60.3466C16.3267 60.3466 17.4602 59.571 17.8182 58.4176L16.6847 58.0994C16.3864 58.8949 15.6953 59.2926 14.7756 59.2926C13.3984 59.2926 12.4489 58.4027 12.3942 56.767H17.9375V56.2699C17.9375 53.4261 16.2472 52.4517 14.6562 52.4517C12.5881 52.4517 11.2159 54.0824 11.2159 56.429C11.2159 58.7756 12.5682 60.3466 14.7756 60.3466ZM12.3942 55.7528C12.4737 54.5646 13.3139 53.5057 14.6562 53.5057C15.929 53.5057 16.7443 54.4602 16.7443 55.7528H12.3942ZM25.3899 49.6875C25.017 50.0007 24.4602 50.0007 23.6797 49.9957C23.4261 49.9957 23.1477 49.9957 22.8445 50.0057C20.5178 50.0653 19.3643 51.8352 19.3643 55.2358V56.0511C19.3643 58.875 20.7365 60.3466 22.7848 60.3466C24.8281 60.3466 26.1854 58.8651 26.1854 56.4688C26.1854 54.0625 24.8082 52.7898 23.0234 52.7898C21.9744 52.7898 20.995 53.2273 20.478 54.1818H20.3786C20.5376 52.2131 21.2734 51.1591 22.8643 51.0994C24.2763 51.0398 25.2905 51.0795 25.9865 50.4034L25.3899 49.6875ZM22.7848 59.2926C21.3928 59.2926 20.5376 58.179 20.5376 56.4688C20.5625 54.7983 21.4027 53.8438 22.7649 53.8438C24.1619 53.8438 25.0121 54.7983 25.0121 56.4688C25.0121 58.1889 24.1669 59.2926 22.7848 59.2926ZM31.1818 60.3466C32.733 60.3466 33.8665 59.571 34.2244 58.4176L33.0909 58.0994C32.7926 58.8949 32.1016 59.2926 31.1818 59.2926C29.8047 59.2926 28.8551 58.4027 28.8004 56.767H34.3438V56.2699C34.3438 53.4261 32.6534 52.4517 31.0625 52.4517C28.9943 52.4517 27.6222 54.0824 27.6222 56.429C27.6222 58.7756 28.9744 60.3466 31.1818 60.3466ZM28.8004 55.7528C28.88 54.5646 29.7202 53.5057 31.0625 53.5057C32.3352 53.5057 33.1506 54.4602 33.1506 55.7528H28.8004ZM35.4524 60.1875H35.8501C37.5405 60.1875 38.0277 58.875 38.1371 56.3693L38.2564 53.6449H41.0604V60.1875H42.2337V52.5511H37.1428L37.0036 55.9318C36.9041 58.4972 36.6456 59.0938 35.7308 59.0938H35.4524V60.1875ZM45.5597 55.3153V52.5511H44.3864V60.1875H47.5881C49.3778 60.1875 50.3523 59.0938 50.3523 57.7216C50.3523 56.3295 49.3778 55.3153 47.5881 55.3153H45.5597ZM45.5597 56.4091H47.5881C48.5178 56.4091 49.179 56.9759 49.179 57.7812C49.179 58.5518 48.5178 59.0938 47.5881 59.0938H45.5597V56.4091ZM53.3116 52.5511H52.1383V60.1875H53.3116V56.9261H56.9707V60.1875H58.144V52.5511H56.9707V55.8324H53.3116V52.5511ZM62.5339 60.3665C63.8663 60.3665 64.5623 59.6506 64.801 59.1534H64.8606V60.1875H66.0339V55.1562C66.0339 52.7301 64.1845 52.4517 63.21 52.4517C62.0566 52.4517 60.7441 52.8494 60.1475 54.2415L61.2612 54.6392C61.5197 54.0824 62.1312 53.4858 63.2498 53.4858C64.3287 53.4858 64.8606 54.0575 64.8606 55.0369V55.0767C64.8606 55.6435 64.2839 55.5938 62.8919 55.7727C61.475 55.9567 59.9288 56.2699 59.9288 58.0199C59.9288 59.5114 61.0822 60.3665 62.5339 60.3665ZM62.7129 59.3125C61.7782 59.3125 61.1021 58.8949 61.1021 58.0795C61.1021 57.1847 61.9174 56.9062 62.8322 56.7869C63.3294 56.7273 64.6618 56.5881 64.8606 56.3494V57.4233C64.8606 58.3778 64.1049 59.3125 62.7129 59.3125ZM72.7692 60.1875H73.8828V52.5511H70.7408C69.0952 52.5511 68.0959 53.4112 68.0959 54.8182C68.0959 55.8672 68.6229 56.6129 69.5426 56.9261L67.6783 60.1875H68.951L70.7209 57.0852H72.7692V60.1875ZM72.7692 55.9915H70.6016C69.7713 55.9915 69.2692 55.549 69.2692 54.8182C69.2692 54.0774 69.826 53.625 70.7408 53.625H72.7692V55.9915ZM83.0765 62.7926H84.2498V60.3466C86.318 60.3466 87.71 58.7756 87.71 56.4091C87.71 54.0227 86.318 52.4517 84.2498 52.4517V50.0057H83.0765V52.4517C81.0083 52.4517 79.6163 54.0227 79.6163 56.4091C79.6163 58.7756 81.0083 60.3466 83.0765 60.3466V62.7926ZM84.2498 59.2926V53.5057C85.8208 53.5057 86.5368 54.8778 86.5368 56.4091C86.5368 57.9403 85.8208 59.2926 84.2498 59.2926ZM83.0765 59.2926C81.5055 59.2926 80.7896 57.9403 80.7896 56.4091C80.7896 54.8778 81.5055 53.5057 83.0765 53.5057V59.2926ZM91.7507 60.3665C93.0831 60.3665 93.7791 59.6506 94.0178 59.1534H94.0774V60.1875H95.2507V55.1562C95.2507 52.7301 93.4013 52.4517 92.4268 52.4517C91.2734 52.4517 89.9609 52.8494 89.3643 54.2415L90.478 54.6392C90.7365 54.0824 91.348 53.4858 92.4666 53.4858C93.5455 53.4858 94.0774 54.0575 94.0774 55.0369V55.0767C94.0774 55.6435 93.5007 55.5938 92.1087 55.7727C90.6918 55.9567 89.1456 56.2699 89.1456 58.0199C89.1456 59.5114 90.299 60.3665 91.7507 60.3665ZM91.9297 59.3125C90.995 59.3125 90.3189 58.8949 90.3189 58.0795C90.3189 57.1847 91.1342 56.9062 92.049 56.7869C92.5462 56.7273 93.8786 56.5881 94.0774 56.3494V57.4233C94.0774 58.3778 93.3217 59.3125 91.9297 59.3125ZM103.06 49.6875C102.687 50.0007 102.13 50.0007 101.35 49.9957C101.096 49.9957 100.818 49.9957 100.514 50.0057C98.1877 50.0653 97.0343 51.8352 97.0343 55.2358V56.0511C97.0343 58.875 98.4064 60.3466 100.455 60.3466C102.498 60.3466 103.855 58.8651 103.855 56.4688C103.855 54.0625 102.478 52.7898 100.693 52.7898C99.6444 52.7898 98.665 53.2273 98.1479 54.1818H98.0485C98.2076 52.2131 98.9434 51.1591 100.534 51.0994C101.946 51.0398 102.96 51.0795 103.656 50.4034L103.06 49.6875ZM100.455 59.2926C99.0627 59.2926 98.2076 58.179 98.2076 56.4688C98.2324 54.7983 99.0726 53.8438 100.435 53.8438C101.832 53.8438 102.682 54.7983 102.682 56.4688C102.682 58.1889 101.837 59.2926 100.455 59.2926ZM105.65 63.0511H106.823V59.0142H106.923C107.181 59.4318 107.678 60.3466 109.15 60.3466C111.059 60.3466 112.392 58.8153 112.392 56.3892C112.392 53.983 111.059 52.4517 109.13 52.4517C107.639 52.4517 107.181 53.3665 106.923 53.7642H106.784V52.5511H105.65V63.0511ZM106.803 56.3693C106.803 54.6591 107.559 53.5057 108.991 53.5057C110.482 53.5057 111.218 54.7585 111.218 56.3693C111.218 58 110.463 59.2926 108.991 59.2926C107.579 59.2926 106.803 58.0994 106.803 56.3693ZM115.355 58.4574V52.5511H114.181V60.1875H115.553L119.213 54.2812V60.1875H120.386V52.5511H119.034L115.355 58.4574ZM122.535 60.1875H123.708V56.9659H124.762L127.268 60.1875H128.779L125.657 56.2301L128.739 52.5511H127.228L124.484 55.8722H123.708V52.5511H122.535V60.1875ZM132.301 60.3665C133.634 60.3665 134.33 59.6506 134.569 59.1534H134.628V60.1875H135.801V55.1562C135.801 52.7301 133.952 52.4517 132.978 52.4517C131.824 52.4517 130.512 52.8494 129.915 54.2415L131.029 54.6392C131.287 54.0824 131.899 53.4858 133.017 53.4858C134.096 53.4858 134.628 54.0575 134.628 55.0369V55.0767C134.628 55.6435 134.051 55.5938 132.659 55.7727C131.243 55.9567 129.696 56.2699 129.696 58.0199C129.696 59.5114 130.85 60.3665 132.301 60.3665ZM132.48 59.3125C131.546 59.3125 130.87 58.8949 130.87 58.0795C130.87 57.1847 131.685 56.9062 132.6 56.7869C133.097 56.7273 134.429 56.5881 134.628 56.3494V57.4233C134.628 58.3778 133.873 59.3125 132.48 59.3125Z" fill="#232323"/>
</svg>
