<svg width="24" height="21" viewBox="0 0 24 21" fill="none" xmlns="http://www.w3.org/2000/svg">
<g clip-path="url(#clip0)">
<path d="M19.5 20.9846H4.5C3.122 20.9846 2 20.0036 2 18.7987V2.1859C2 0.981031 3.122 0 4.5 0H19.5C20.878 0 22 0.981031 22 2.1859V18.7987C22 20.0036 20.878 20.9846 19.5 20.9846ZM4.5 0.874359C3.673 0.874359 3 1.4628 3 2.1859V18.7987C3 19.5218 3.673 20.1103 4.5 20.1103H19.5C20.327 20.1103 21 19.5218 21 18.7987V2.1859C21 1.4628 20.327 0.874359 19.5 0.874359H4.5Z" fill="#444444"/>
<path d="M17.5 6.99484H6.5C5.673 6.99484 5 6.4064 5 5.6833V3.93459C5 3.21149 5.673 2.62305 6.5 2.62305H17.5C18.327 2.62305 19 3.21149 19 3.93459V5.6833C19 6.4064 18.327 6.99484 17.5 6.99484ZM6.5 3.49741C6.224 3.49741 6 3.69326 6 3.93459V5.6833C6 5.92463 6.224 6.12048 6.5 6.12048H17.5C17.776 6.12048 18 5.92463 18 5.6833V3.93459C18 3.69326 17.776 3.49741 17.5 3.49741H6.5Z" fill="#444444"/>
<path d="M8 12.2411C7.724 12.2411 7.5 12.0452 7.5 11.8039V9.18083C7.5 8.93951 7.724 8.74365 8 8.74365C8.276 8.74365 8.5 8.93951 8.5 9.18083V11.8039C8.5 12.0452 8.276 12.2411 8 12.2411Z" fill="#444444"/>
<path d="M9.49999 10.9295H6.5C6.224 10.9295 6 10.7337 6 10.4924C6 10.251 6.224 10.0552 6.5 10.0552H9.49999C9.77599 10.0552 9.99999 10.251 9.99999 10.4924C9.99999 10.7337 9.77599 10.9295 9.49999 10.9295Z" fill="#444444"/>
<path d="M17.5 10.9295H14.5C14.224 10.9295 14 10.7337 14 10.4924C14 10.251 14.224 10.0552 14.5 10.0552H17.5C17.776 10.0552 18 10.251 18 10.4924C18 10.7337 17.776 10.9295 17.5 10.9295Z" fill="#444444"/>
<path d="M17.5 14.8641H14.5C14.224 14.8641 14 14.6682 14 14.4269C14 14.1856 14.224 13.9897 14.5 13.9897H17.5C17.776 13.9897 18 14.1856 18 14.4269C18 14.6682 17.776 14.8641 17.5 14.8641Z" fill="#444444"/>
<path d="M17.5 17.4871H14.5C14.224 17.4871 14 17.2913 14 17.05C14 16.8086 14.224 16.6128 14.5 16.6128H17.5C17.776 16.6128 18 16.8086 18 17.05C18 17.2913 17.776 17.4871 17.5 17.4871Z" fill="#444444"/>
<path d="M6.50025 17.487C6.37225 17.487 6.24425 17.4442 6.14625 17.3594C5.95125 17.1889 5.95125 16.9117 6.14625 16.7412L9.14625 14.1181C9.34125 13.9476 9.65825 13.9476 9.85325 14.1181C10.0482 14.2886 10.0482 14.5658 9.85325 14.7363L6.85325 17.3594C6.75625 17.4442 6.62825 17.487 6.50025 17.487Z" fill="#444444"/>
<path d="M9.50025 17.487C9.37225 17.487 9.24425 17.4442 9.14625 17.3594L6.14625 14.7363C5.95125 14.5658 5.95125 14.2886 6.14625 14.1181C6.34125 13.9476 6.65825 13.9476 6.85325 14.1181L9.85325 16.7412C10.0482 16.9117 10.0482 17.1889 9.85325 17.3594C9.75625 17.4442 9.62825 17.487 9.50025 17.487Z" fill="#444444"/>
</g>
<defs>
<clipPath id="clip0">
<rect width="24" height="20.9846" fill="white"/>
</clipPath>
</defs>
</svg>
