<svg width="19" height="21" viewBox="0 0 19 21" fill="none" xmlns="http://www.w3.org/2000/svg">
<path d="M17.782 0H1.2179C0.923351 0 0.68457 0.20878 0.68457 0.466325V18.8143C0.68457 19.0719 0.923351 19.2807 1.2179 19.2807H2.62507V20.5183C2.62507 20.7758 2.86385 20.9846 3.1584 20.9846C3.45295 20.9846 3.69173 20.7758 3.69173 20.5183V19.2807H15.3083V20.5183C15.3083 20.7758 15.547 20.9846 15.8416 20.9846C16.1362 20.9846 16.3749 20.7758 16.3749 20.5183V19.2807H17.7821C18.0767 19.2807 18.3154 19.0719 18.3154 18.8143V0.466325C18.3154 0.20878 18.0766 0 17.782 0ZM1.75124 0.93265H8.96663V18.348H1.75124V0.93265ZM17.2487 18.348H10.0333V0.93265H17.2487V18.348Z" fill="#444444"/>
</svg>
