<svg width="25" height="21" viewBox="0 0 25 21" fill="none" xmlns="http://www.w3.org/2000/svg">
<path d="M8.26655 4.20708C8.46076 4.20708 8.61812 4.06949 8.61812 3.89968V3.12846H9.49192C9.68612 3.12846 9.84348 2.99087 9.84348 2.82106C9.84348 2.65126 9.68612 2.51367 9.49192 2.51367H8.52995C8.1909 2.51367 7.91504 2.75487 7.91504 3.05136V3.89964C7.91499 4.06945 8.07235 4.20708 8.26655 4.20708Z" fill="#87629E"/>
<path d="M20.543 3.12846H21.4006V3.89964C21.4006 4.06944 21.558 4.20703 21.7522 4.20703C21.9464 4.20703 22.1037 4.06944 22.1037 3.89964V3.05136C22.1037 2.75487 21.8279 2.51367 21.4888 2.51367H20.543C20.3488 2.51367 20.1914 2.65126 20.1914 2.82106C20.1914 2.99087 20.3488 3.12846 20.543 3.12846Z" fill="#87629E"/>
<path d="M20.543 14.9193H21.4888C21.8279 14.9193 22.1037 14.6781 22.1037 14.3816V13.5618C22.1037 13.392 21.9464 13.2544 21.7522 13.2544C21.558 13.2544 21.4006 13.392 21.4006 13.5618V14.3045H20.543C20.3488 14.3045 20.1914 14.4421 20.1914 14.6119C20.1914 14.7817 20.3488 14.9193 20.543 14.9193Z" fill="#87629E"/>
<path d="M8.52999 14.9193H9.49196C9.68616 14.9193 9.84352 14.7817 9.84352 14.6119C9.84352 14.4421 9.68616 14.3045 9.49196 14.3045H8.61816V13.5618C8.61816 13.392 8.4608 13.2544 8.2666 13.2544C8.0724 13.2544 7.91504 13.392 7.91504 13.5618V14.3816C7.91509 14.6781 8.1909 14.9193 8.52999 14.9193Z" fill="#87629E"/>
<path d="M23.5443 16.6364H5.72558C5.58631 16.6364 5.47302 16.5374 5.47302 16.4156V0.835614C5.47302 0.374854 5.04425 0 4.51728 0H1.45569C0.928719 0 0.5 0.374854 0.5 0.835614V5.83573C0.5 6.00554 0.657359 6.14312 0.851562 6.14312C1.04577 6.14312 1.20312 6.00554 1.20312 5.83573V0.835614C1.20312 0.713846 1.31642 0.614784 1.45569 0.614784H4.51728C4.65659 0.614784 4.76989 0.713846 4.76989 0.835614V2.32933H3.57814C3.38394 2.32933 3.22658 2.46692 3.22658 2.63673C3.22658 2.80653 3.38394 2.94412 3.57814 2.94412H4.76989V4.28812H4.03906C3.84486 4.28812 3.6875 4.42571 3.6875 4.59551C3.6875 4.76531 3.84486 4.9029 4.03906 4.9029H4.76989V6.24686H3.57814C3.38394 6.24686 3.22658 6.38445 3.22658 6.55425C3.22658 6.72405 3.38394 6.86164 3.57814 6.86164H4.76989V8.20564H4.03906C3.84486 8.20564 3.6875 8.34323 3.6875 8.51303C3.6875 8.68284 3.84486 8.82043 4.03906 8.82043H4.76989V10.1644H3.57814C3.38394 10.1644 3.22658 10.302 3.22658 10.4718C3.22658 10.6416 3.38394 10.7792 3.57814 10.7792H4.76989V12.1232H4.03906C3.84486 12.1232 3.6875 12.2608 3.6875 12.4306C3.6875 12.6004 3.84486 12.738 4.03906 12.738H4.76989V14.082H3.57814C3.38394 14.082 3.22658 14.2195 3.22658 14.3893C3.22658 14.5591 3.38394 14.6967 3.57814 14.6967H4.76989V16.4156C4.76989 16.5335 4.79797 16.6458 4.84859 16.7476L1.20312 19.9351V7.27277C1.20312 7.10297 1.04577 6.96538 0.851562 6.96538C0.657359 6.96538 0.5 7.10297 0.5 7.27277V20.149C0.5 20.6096 0.928438 20.9846 1.45569 20.9846H23.5444C24.0713 20.9846 24.5 20.6098 24.5 20.149V17.4721C24.5 17.0113 24.0713 16.6364 23.5443 16.6364ZM23.7969 20.149C23.7969 20.2708 23.6836 20.3698 23.5443 20.3698H1.70033L5.3458 17.1824C5.46223 17.2267 5.59067 17.2512 5.72553 17.2512H7.4682V18.2938C7.4682 18.4636 7.62556 18.6012 7.81977 18.6012C8.01397 18.6012 8.17133 18.4636 8.17133 18.2938V17.2512H9.70845V17.8908C9.70845 18.0606 9.86581 18.1982 10.06 18.1982C10.2542 18.1982 10.4116 18.0606 10.4116 17.8908V17.2512H11.9487V18.2938C11.9487 18.4636 12.106 18.6012 12.3002 18.6012C12.4944 18.6012 12.6518 18.4636 12.6518 18.2938V17.2512H14.1889V17.8908C14.1889 18.0606 14.3463 18.1982 14.5405 18.1982C14.7347 18.1982 14.892 18.0606 14.892 17.8908V17.2512H16.4291V18.2938C16.4291 18.4636 16.5865 18.6012 16.7807 18.6012C16.9749 18.6012 17.1322 18.4636 17.1322 18.2938V17.2512H18.6694V17.8908C18.6694 18.0606 18.8267 18.1982 19.0209 18.1982C19.2151 18.1982 19.3725 18.0606 19.3725 17.8908V17.2512H20.9096V18.2938C20.9096 18.4636 21.0669 18.6012 21.2611 18.6012C21.4553 18.6012 21.6127 18.4636 21.6127 18.2938V17.2512H23.5443C23.6836 17.2512 23.7969 17.3503 23.7969 17.4721V20.149Z" fill="#87629E"/>
<path d="M10.4566 11.5487L14.4805 13.58C14.8067 13.7447 15.212 13.7447 15.5381 13.58L19.562 11.5487C19.8882 11.384 20.0909 11.0772 20.0909 10.7478V6.68515C20.0909 6.35628 19.8886 6.04909 19.5621 5.88429L15.5382 3.853C15.212 3.68832 14.8067 3.68832 14.4805 3.853L10.4566 5.88433C10.1307 6.0488 9.92773 6.35566 9.92773 6.68519V10.7478C9.92773 11.0772 10.1304 11.3841 10.4566 11.5487ZM10.8081 11.0163C10.6988 10.9611 10.6309 10.8582 10.6309 10.7478V6.86114L14.6578 8.89394V12.9596L10.8081 11.0163ZM14.832 4.3854C14.9413 4.3302 15.0772 4.33012 15.1866 4.3854L19.0362 6.32874L17.7103 6.99803C17.5422 7.08291 17.4846 7.27091 17.5816 7.41793C17.6791 7.56568 17.8945 7.6149 18.0619 7.53043L19.3877 6.86114V10.7478C19.3877 10.8582 19.3198 10.9611 19.2105 11.0163L15.3609 12.9595V8.89394L16.6141 8.26129C16.7823 8.17641 16.8399 7.98841 16.7428 7.84139C16.6458 7.69438 16.4306 7.64405 16.2626 7.72889L15.0093 8.36154L10.9824 6.32874L14.832 4.3854Z" fill="#87629E"/>
</svg>
