<svg width="40" height="40" viewBox="0 0 40 40" fill="none" xmlns="http://www.w3.org/2000/svg">
<path d="M39.6377 18.8172C39.4183 18.7262 39.1658 18.7765 38.9978 18.9444L37.2394 20.7027V8.74716C37.2394 8.42287 36.9766 8.16005 36.6523 8.16005H32.1413L33.7788 6.52255C33.7791 6.52232 33.7793 6.522 33.7795 6.52177L35.3573 4.94395C35.6954 4.60591 35.8816 4.15622 35.8816 3.67809C35.8816 3.19997 35.6954 2.75043 35.3573 2.41223L33.5328 0.587696C33.1948 0.249649 32.7451 0.0634766 32.2669 0.0634766C31.7888 0.0634766 31.3392 0.249649 31.0011 0.587696L29.4225 2.16629L27.515 4.0738L23.4288 8.15998H5.2047V2.35176C5.2047 2.02746 4.94181 1.76465 4.61759 1.76465C2.07149 1.76481 0 3.83614 0 6.3824V31.3188C0 31.3622 0.00500001 31.4044 0.0139063 31.445C0.0950002 32.5254 0.562423 33.5292 1.3436 34.2913C2.1786 35.1057 3.28087 35.5542 4.44743 35.5542H22.3879L19.0091 38.933C18.8412 39.101 18.791 39.3534 18.8818 39.5728C18.9727 39.7922 19.1868 39.9353 19.4243 39.9353H39.413C39.7372 39.9353 40.0001 39.6725 40.0001 39.3482V19.3596C40.0001 19.1222 39.857 18.908 39.6377 18.8172ZM31.8315 1.41809C32.0715 1.17793 32.4626 1.17793 32.7026 1.41809L34.5272 3.2427C34.7673 3.48278 34.7673 3.87364 34.5272 4.1138L33.3638 5.27724L30.668 2.58153L31.8315 1.41809ZM29.8377 3.41184L32.5334 6.10747L31.4562 7.18474L28.7606 4.48911L29.8377 3.41184ZM38.826 25.9567H37.7428C37.4185 25.9567 37.1557 26.2195 37.1557 26.5438C37.1557 26.8681 37.4185 27.1309 37.7428 27.1309H38.826V28.9001H37.7428C37.4185 28.9001 37.1557 29.1629 37.1557 29.4872C37.1557 29.8115 37.4185 30.0743 37.7428 30.0743H38.826V31.8435H37.7428C37.4185 31.8435 37.1557 32.1063 37.1557 32.4306C37.1557 32.7549 37.4185 33.0177 37.7428 33.0177H38.826V34.7869H37.7428C37.4185 34.7869 37.1557 35.0498 37.1557 35.374C37.1557 35.6983 37.4185 35.9611 37.7428 35.9611H38.826V38.7613H20.8416L26.7719 32.831C27.0012 32.6017 27.0012 32.23 26.7719 32.0007C26.7456 31.9744 26.7173 31.9516 26.6877 31.9313C26.4591 31.7747 26.1446 31.7978 25.9415 32.0007L23.5622 34.3801H4.44751C2.66688 34.3801 1.23344 32.9899 1.17703 31.2125C1.18039 31.101 1.18906 30.9903 1.20297 30.881C1.20305 30.8803 1.20313 30.8797 1.20321 30.8791C1.20977 30.8271 1.21766 30.7754 1.22664 30.724C1.22766 30.7181 1.22875 30.7123 1.22977 30.7064C1.23797 30.6606 1.24719 30.6149 1.25727 30.5695C1.26008 30.5568 1.26305 30.5442 1.26602 30.5316C1.27492 30.4931 1.28453 30.4549 1.29485 30.4169C1.30047 30.3963 1.30633 30.3759 1.31235 30.3553C1.32094 30.3255 1.32985 30.2957 1.3393 30.2663C1.34875 30.2368 1.35883 30.2077 1.36907 30.1785C1.37617 30.1581 1.38321 30.1378 1.39086 30.1175C1.40516 30.0791 1.42032 30.041 1.43594 30.0033C1.44039 29.9924 1.44477 29.9814 1.44938 29.9706C1.46946 29.9237 1.49032 29.8774 1.51235 29.8316C1.51328 29.8296 1.51414 29.8277 1.51508 29.8257C1.9743 28.8754 2.85751 28.1669 3.91743 27.947C3.9204 27.9464 3.92337 27.9457 3.92634 27.9451C3.97493 27.9352 4.02399 27.9267 4.07337 27.9188C4.08157 27.9174 4.08977 27.9158 4.09813 27.9145C4.14274 27.9077 4.18782 27.9024 4.2329 27.8974C4.24556 27.896 4.25813 27.894 4.27087 27.8927C4.31438 27.8884 4.35829 27.8855 4.4022 27.8827C4.4161 27.8819 4.43001 27.8804 4.44392 27.8797C4.50142 27.8768 4.55938 27.8753 4.61759 27.8753C4.94181 27.8753 5.2047 27.6125 5.2047 27.2882V23.0313C5.2047 22.707 4.94181 22.4441 4.61759 22.4441C4.29337 22.4441 4.03048 22.707 4.03048 23.0313V26.7381C3.03907 26.8634 2.11883 27.3056 1.39321 28.0142C1.31688 28.0888 1.24453 28.1663 1.17406 28.245V6.3824C1.17406 4.68388 2.41047 3.26848 4.0304 2.98895V8.74716V20.6829V20.683C4.0304 21.0072 4.29329 21.2701 4.61751 21.2701C4.94173 21.2701 5.20462 21.0072 5.20462 20.683V20.6829V9.33428H22.2547L19.009 12.5799C18.7797 12.8093 18.7797 13.1809 19.009 13.4102C19.2383 13.6394 19.61 13.6394 19.8393 13.4102L24.0872 9.16232C24.0873 9.16217 24.0874 9.16201 24.0875 9.16193L27.9301 5.31935L30.6257 8.01505L30.3094 8.33131C30.3092 8.33154 30.3089 8.33177 30.3087 8.33201L18.4705 20.1703L15.7749 17.4747L18.1083 15.1412C18.3376 14.9119 18.3376 14.5402 18.1083 14.3109C17.879 14.0817 17.5073 14.0817 17.2781 14.3109L14.5294 17.0595C14.5147 17.0742 14.501 17.0898 14.4881 17.1057C14.4838 17.111 14.48 17.1167 14.4759 17.1223C14.4676 17.1333 14.4595 17.1444 14.4519 17.1559C14.4476 17.1626 14.4437 17.1695 14.4396 17.1765C14.4332 17.1874 14.4269 17.1985 14.4212 17.2098C14.4175 17.2172 14.4141 17.2246 14.4107 17.2323C14.4054 17.2437 14.4006 17.2555 14.3961 17.2672C14.3946 17.2713 14.3925 17.2752 14.391 17.2794L13.2472 20.5196L12.4674 22.7289C12.4571 22.7583 12.4496 22.7881 12.4441 22.8182H10.4916C10.1674 22.8182 9.90447 23.081 9.90447 23.4053C9.90447 23.7296 10.1674 23.9924 10.4916 23.9924H26.7505C27.0748 23.9924 27.3376 23.7296 27.3376 23.4053C27.3376 23.081 27.0748 22.8182 26.7505 22.8182H15.0854L18.6659 21.5543C18.6689 21.5532 18.6717 21.5517 18.6746 21.5506C18.6886 21.5455 18.7022 21.5397 18.7157 21.5335C18.7211 21.531 18.7265 21.5287 18.7318 21.5261C18.7458 21.5191 18.7596 21.5113 18.7732 21.503C18.7776 21.5004 18.7821 21.498 18.7864 21.4952C18.8006 21.4862 18.8143 21.4763 18.8279 21.4658C18.8312 21.4632 18.8347 21.4609 18.838 21.4583C18.8543 21.4452 18.8703 21.431 18.8855 21.4159L30.9671 9.33435H36.0652V21.877L27.667 30.2753C27.4377 30.5046 27.4377 30.8763 27.667 31.1056C27.6813 31.1199 27.6962 31.1333 27.7116 31.1459C27.8193 31.2336 27.9508 31.2775 28.0822 31.2775C28.2136 31.2775 28.3451 31.2336 28.4527 31.1459C28.4681 31.1334 28.483 31.1199 28.4973 31.1056C28.4976 31.1053 28.4973 31.1056 28.4976 31.1053L38.826 20.7768V25.9567ZM17.3967 20.757L15.715 21.3506L14.5945 20.2302L15.1882 18.5484L17.3967 20.757Z" fill="#87629E"/>
</svg>
