<svg viewBox="0 0 24 24" fill="none" xmlns="http://www.w3.org/2000/svg">
<circle cx="12" cy="12" r="12" fill="#87629E"/>
<path d="M17.0215 8.8245C15.2491 6.09219 11.6307 5.27989 8.82453 6.97835C6.09222 8.67681 5.20607 12.3691 6.97837 15.1014L7.12607 15.323L6.5353 17.5384L8.75068 16.9476L8.97222 17.0953C9.93222 17.6122 10.9661 17.9076 11.9999 17.9076C13.1076 17.9076 14.2153 17.6122 15.1753 17.0214C17.9076 15.2491 18.7199 11.6307 17.0215 8.8245ZM15.4707 14.5107C15.1753 14.9537 14.8061 15.2491 14.2891 15.323C13.9938 15.323 13.6245 15.4707 12.1476 14.8799C10.8922 14.2891 9.85837 13.3291 9.11991 12.2214C8.67684 11.7045 8.4553 11.0399 8.38145 10.3753C8.38145 9.7845 8.60299 9.26758 8.97222 8.89835C9.11991 8.75066 9.2676 8.67681 9.4153 8.67681H9.78453C9.93222 8.67681 10.0799 8.67681 10.1538 8.9722C10.3015 9.34143 10.6707 10.2276 10.6707 10.3014C10.7445 10.3753 10.7445 10.523 10.6707 10.5968C10.7445 10.7445 10.6707 10.8922 10.5968 10.966C10.523 11.0399 10.4491 11.1876 10.3753 11.2614C10.2276 11.3353 10.1538 11.483 10.2276 11.6307C10.523 12.0737 10.8922 12.5168 11.2615 12.886C11.7045 13.2553 12.1476 13.5507 12.6645 13.7722C12.8122 13.846 12.9599 13.846 13.0338 13.6983C13.1076 13.5507 13.4768 13.1814 13.6245 13.0337C13.7722 12.886 13.8461 12.886 13.9938 12.9599L15.1753 13.5507C15.323 13.6245 15.4707 13.6983 15.5445 13.7722C15.6184 13.9937 15.6184 14.2891 15.4707 14.5107Z" fill="white"/>
</svg>
